<?xml version="1.0" standalone="no"?>
<!DOCTYPE svg PUBLIC "-//W3C//DTD SVG 20010904//EN"
 "http://www.w3.org/TR/2001/REC-SVG-20010904/DTD/svg10.dtd">
<svg version="1.0" xmlns="http://www.w3.org/2000/svg"
 width="1024.000000pt" height="1024.000000pt" viewBox="0 0 1024.000000 1024.000000"
 preserveAspectRatio="xMidYMid meet">

<g transform="translate(0.000000,1024.000000) scale(0.100000,-0.100000)"
fill="#000000" stroke="none">
<path d="M0 5120 l0 -5120 5120 0 5120 0 0 5120 0 5120 -5120 0 -5120 0 0
-5120z m5324 3375 c696 -92 1265 -410 1669 -930 185 -238 345 -546 422 -812
43 -146 84 -369 96 -522 23 -281 -22 -611 -122 -897 -68 -196 -231 -495 -343
-627 -28 -33 -78 -95 -112 -136 -113 -142 -345 -344 -559 -488 -126 -85 -336
-176 -444 -193 -36 -5 -67 -7 -70 -4 -3 2 -5 54 -6 115 0 109 0 110 25 115
228 47 531 235 761 471 396 406 595 828 640 1358 20 235 -4 468 -72 714 -144
522 -468 960 -953 1290 -86 59 -321 170 -458 217 -256 87 -465 124 -709 124
-262 0 -440 -30 -714 -121 -423 -140 -772 -396 -1054 -773 -126 -167 -241
-392 -311 -603 -77 -236 -110 -434 -110 -668 0 -498 151 -933 469 -1350 67
-89 262 -285 366 -369 150 -122 360 -245 485 -285 l65 -21 0 -105 0 -105 -31
0 c-50 0 -184 39 -260 76 -76 36 -278 166 -379 243 -161 122 -350 320 -492
511 -197 266 -336 599 -410 980 -37 197 -43 507 -14 739 68 524 291 991 646
1346 245 246 483 403 822 544 355 147 809 212 1157 166z m81 -415 c131 -23
370 -96 505 -155 419 -180 785 -532 990 -950 60 -123 134 -336 160 -464 30
-144 45 -431 32 -599 -10 -131 -49 -313 -97 -457 -48 -143 -194 -406 -300
-540 -216 -273 -585 -555 -795 -608 l-55 -14 -5 106 -5 106 48 17 c126 45 304
155 436 269 183 158 381 436 466 654 65 164 117 398 129 580 4 50 9 114 12
143 l5 52 -370 0 -370 0 -16 -30 c-19 -37 -43 -50 -91 -50 -30 0 -44 7 -75 40
-65 68 -65 137 0 202 32 31 46 38 79 38 33 0 45 -6 71 -35 l30 -35 354 0 c195
0 356 3 359 6 3 3 2 20 -3 39 -5 18 -13 60 -17 92 l-7 58 -460 2 c-253 0 -532
2 -620 4 l-160 3 -127 -130 -128 -129 0 -375 0 -374 42 39 c23 22 51 51 62 65
11 14 37 42 59 63 l39 38 -16 46 c-29 85 -17 155 40 221 42 50 76 69 143 82
64 12 112 -2 162 -47 62 -56 82 -103 77 -183 -3 -53 -10 -78 -33 -115 -55 -88
-181 -133 -261 -92 l-29 14 -105 -111 c-58 -61 -122 -125 -143 -143 l-38 -32
1 -748 1 -748 -66 3 -65 4 0 1203 c0 662 -3 1211 -6 1219 -5 12 42 66 162 189
l169 173 623 -1 c476 0 621 3 618 12 -3 6 -10 30 -16 53 -16 61 -71 177 -136
288 -180 307 -412 513 -784 698 -251 124 -531 187 -825 185 -183 -1 -256 -11
-453 -62 -249 -65 -428 -150 -626 -297 -202 -151 -354 -318 -450 -495 -114
-209 -183 -399 -227 -627 -18 -94 -23 -149 -23 -300 0 -254 30 -416 123 -668
65 -179 222 -430 356 -571 123 -129 343 -299 473 -365 l52 -26 0 -105 c0 -123
3 -121 -104 -71 -137 63 -321 200 -489 365 -224 219 -384 462 -485 736 -86
235 -115 406 -116 685 -1 229 15 347 73 550 100 349 255 616 495 855 166 165
312 269 521 370 218 105 455 177 682 205 116 15 413 4 548 -20z m-289 -197
c104 -58 163 -146 164 -242 0 -93 -55 -173 -140 -203 l-30 -10 0 -103 c0 -56
3 -130 6 -164 l7 -61 468 0 468 0 19 43 c42 94 124 136 242 125 131 -13 219
-185 160 -310 -30 -64 -87 -114 -154 -133 -58 -17 -88 -14 -147 16 -40 20 -94
76 -104 108 -6 21 -11 21 -390 21 -211 0 -395 -4 -408 -9 -22 -9 -30 -21 -71
-111 -9 -19 -32 -57 -52 -84 l-36 -48 -3 -1072 c-1 -589 -3 -1223 -4 -1409
l-1 -338 -62 3 -63 3 -3 1765 -3 1765 -42 20 c-89 42 -133 179 -89 276 29 65
85 124 145 153 28 14 57 25 63 26 6 0 33 -12 60 -27z m624 -257 c20 -13 48
-47 64 -76 25 -45 28 -60 24 -116 -3 -52 -9 -70 -34 -101 -40 -49 -78 -68
-135 -67 -98 1 -179 83 -179 182 0 148 152 252 260 178z m-1185 -25 c45 -20
99 -71 122 -115 21 -41 28 -128 13 -181 -15 -53 -76 -127 -120 -145 l-30 -12
0 -163 0 -163 33 -21 c36 -22 83 -70 117 -120 31 -45 39 -150 15 -205 -22 -51
-100 -133 -134 -141 l-27 -6 4 -247 5 -247 71 -80 c39 -43 106 -117 149 -164
l77 -85 0 -803 0 -803 -70 0 -70 0 1 648 c1 356 4 706 7 777 l7 130 -60 70
c-33 38 -87 99 -120 135 -146 157 -138 144 -130 217 4 36 4 152 0 257 l-8 192
-40 15 c-52 18 -101 80 -123 157 -20 69 -10 138 31 209 26 44 96 103 122 103
10 0 13 30 13 148 0 81 3 157 6 170 5 16 2 22 -10 22 -23 0 -87 34 -108 56
-33 37 -68 122 -68 164 0 171 178 298 325 231z m-585 -466 c70 -50 103 -105
108 -179 2 -35 -1 -80 -7 -99 -18 -52 -83 -121 -138 -145 l-48 -20 5 -394 5
-394 75 -79 c41 -43 190 -194 331 -336 l257 -257 6 -234 c4 -128 6 -426 4
-663 l-3 -430 -68 -3 -68 -3 1 636 1 635 -81 92 c-45 51 -119 127 -163 168
-45 41 -160 151 -254 245 l-173 171 0 437 c0 385 -2 437 -15 437 -9 0 -35 18
-59 41 -122 111 -93 285 64 393 20 14 42 17 102 14 66 -3 82 -7 118 -33z
m-392 -765 c53 -38 76 -81 69 -132 -10 -76 -83 -148 -150 -148 -34 0 -86 38
-109 80 -27 50 -21 140 13 176 54 59 117 68 177 24z m638 -169 c22 -10 55 -36
72 -57 84 -101 2 -264 -134 -266 -52 -1 -88 21 -118 71 -57 98 -26 216 68 257
42 18 63 17 112 -5z m2329 -275 c201 -95 189 -345 -21 -438 -38 -16 -52 -18
-99 -9 -62 12 -95 31 -129 74 l-23 29 -44 -25 c-24 -14 -71 -33 -104 -42 -69
-19 -81 -28 -143 -110 -61 -81 -151 -185 -237 -273 l-70 -73 0 -579 0 -579
-63 -3 -62 -3 -2 215 c-1 118 -1 359 0 535 1 177 -2 350 -7 385 l-9 65 72 75
c39 41 130 142 201 225 189 217 186 215 295 253 52 18 102 32 111 32 13 0 17
14 21 64 6 75 28 116 80 152 82 58 155 67 233 30z m-2551 -496 c80 -30 153
-147 142 -228 -22 -161 -167 -262 -298 -208 -41 18 -104 85 -124 132 -55 132
67 313 213 314 23 0 53 -4 67 -10z m2213 -131 c133 -50 180 -294 75 -391 -56
-52 -164 -65 -223 -25 -71 47 -103 128 -97 239 4 79 21 107 92 156 52 34 100
41 153 21z m-320 -1555 c46 -7 103 -63 103 -101 0 -51 -39 -76 -128 -85 -42
-3 -416 -7 -830 -7 -825 -1 -805 -2 -836 58 -24 45 -20 66 19 99 37 33 65 41
165 45 116 4 1474 -4 1507 -9z m39 -340 c37 -17 64 -58 64 -95 0 -11 -15 -36
-33 -54 l-33 -33 -214 -6 c-118 -4 -494 -6 -835 -4 l-620 3 -32 22 c-78 56
-50 149 52 174 17 4 387 7 823 8 716 1 797 -1 828 -15z m9 -344 c67 -41 70
-124 6 -167 l-34 -23 -811 0 c-764 0 -813 1 -845 18 -19 10 -43 34 -54 53 -19
34 -20 36 -2 72 33 70 -18 66 889 67 803 0 819 0 851 -20z m-169 -357 c-48
-129 -250 -315 -406 -374 -118 -45 -281 -60 -423 -38 -187 28 -423 195 -500
353 -15 30 -27 57 -27 60 0 9 167 12 779 14 552 2 583 1 577 -15z m259 -628
c81 -16 115 -47 95 -86 -30 -56 -152 -70 -680 -78 -688 -10 -1223 9 -1299 47
-49 24 -60 46 -36 71 23 26 76 41 179 49 113 10 1692 7 1741 -3z"/>
<path d="M5701 5949 c-24 -24 -31 -39 -31 -71 0 -34 7 -47 39 -79 60 -61 114
-49 157 33 35 67 -18 148 -96 148 -30 0 -46 -7 -69 -31z"/>
<path d="M4985 7725 c-14 -13 -26 -37 -27 -52 -4 -87 11 -116 73 -135 49 -14
91 2 119 47 24 38 25 66 6 104 -33 63 -125 83 -171 36z"/>
<path d="M6220 7147 c-32 -25 -50 -62 -50 -105 0 -37 6 -50 34 -78 38 -38 72
-43 116 -18 37 22 60 64 60 109 0 53 -53 105 -106 105 -22 0 -46 -6 -54 -13z"/>
<path d="M5602 7517 c-58 -62 11 -152 93 -121 24 10 46 60 39 89 -14 55 -93
74 -132 32z"/>
<path d="M4412 7486 c-29 -15 -62 -64 -62 -90 0 -32 39 -103 67 -121 43 -28
89 -24 125 12 26 26 32 42 36 87 4 53 3 57 -31 91 -28 28 -43 35 -73 35 -22
-1 -49 -6 -62 -14z"/>
<path d="M4434 6690 c-42 -17 -74 -68 -74 -118 0 -80 58 -143 132 -142 74 1
125 136 81 211 -28 47 -90 69 -139 49z"/>
<path d="M3785 7040 c-32 -21 -65 -73 -65 -104 0 -34 42 -88 84 -107 57 -26
73 -24 111 14 67 67 64 165 -5 199 -46 23 -88 23 -125 -2z"/>
<path d="M4126 6088 c-32 -46 -7 -78 50 -64 25 7 41 44 30 71 -9 24 -62 19
-80 -7z"/>
<path d="M6385 5810 c-42 -44 -42 -110 -2 -164 54 -70 118 -67 162 8 35 59 33
98 -8 142 -26 28 -42 37 -77 41 -41 4 -48 2 -75 -27z"/>
<path d="M3857 5297 c-48 -38 -54 -126 -12 -171 19 -21 34 -26 69 -26 37 0 48
5 70 31 32 37 40 68 32 114 -13 68 -102 98 -159 52z"/>
<path d="M6121 5167 c-55 -32 -65 -94 -22 -138 63 -62 157 -24 155 63 -1 25
-9 47 -21 59 -25 25 -81 33 -112 16z"/>
</g>
</svg>
